<?xml version="1.0" encoding="utf-8"?>
<!-- Generator: Adobe Illustrator 24.2.3, SVG Export Plug-In . SVG Version: 6.00 Build 0)  -->
<svg version="1.1" id="Capa_1" xmlns="http://www.w3.org/2000/svg" xmlns:xlink="http://www.w3.org/1999/xlink" x="0px" y="0px"
	 viewBox="0 0 56 56" style="enable-background:new 0 0 56 56;" xml:space="preserve">
<style type="text/css">
	.st0{fill:#E9E9E0;}
	.st1{fill:#659C35;}
	.st2{fill:#D9D7CA;}
	.st3{fill:#F3D55B;}
	.st4{fill:#88C057;}
	.st5{fill:#FFFFFF;}
</style>
<path class="st0" d="M37,0H8C7.2,0,6.5,0.7,6.5,1.9V55c0,0.3,0.7,1,1.5,1H48c0.8,0,1.5-0.7,1.5-1V13c0-0.7-0.1-0.9-0.3-1.1L37.6,0.3
	C37.4,0.1,37.2,0,37,0z"/>
<path class="st1" d="M48,56H8c-0.8,0-1.5-0.7-1.5-1.5V39h43v15.5C49.5,55.3,48.8,56,48,56z"/>
<polygon class="st2" points="37.5,0.2 37.5,12 49.3,12 "/>
<circle class="st3" cx="18.9" cy="14.4" r="4.6"/>
<polygon class="st4" points="6.5,39 17.5,39 49.5,39 49.5,28 39.5,18.5 29,30 23.5,24.5 "/>
<g>
	<path class="st5" d="M20.3,43.1v9.4h-1.7v-9.4H20.3z"/>
	<path class="st5" d="M30.2,48.7c-0.1-1.2-0.1-2.7-0.1-4h0c-0.3,1.1-0.7,2.4-1.1,3.6l-1.4,4.1h-1.3l-1.3-4c-0.4-1.2-0.7-2.5-1-3.7h0
		c0,1.2-0.1,2.7-0.2,4l-0.2,3.8H22l0.6-9.4h2.3l1.2,3.8c0.3,1.1,0.6,2.2,0.9,3.3h0c0.3-1,0.6-2.2,0.9-3.3l1.3-3.8h2.2l0.5,9.4h-1.7
		L30.2,48.7z"/>
	<path class="st5" d="M41.4,52.1c-0.6,0.2-1.8,0.5-3,0.5c-1.6,0-2.8-0.4-3.7-1.3c-0.8-0.8-1.3-2-1.3-3.5c0-3,2.1-4.9,5.3-4.9
		c1.2,0,2.1,0.2,2.5,0.4l-0.4,1.4c-0.5-0.2-1.1-0.4-2.1-0.4c-2,0-3.4,1.2-3.4,3.4c0,2.1,1.3,3.4,3.3,3.4c0.6,0,1.1-0.1,1.3-0.2v-2.4
		H38v-1.4h3.3V52.1z"/>
</g>
</svg>
