<?xml version="1.0" standalone="no"?>
<!DOCTYPE svg PUBLIC "-//W3C//DTD SVG 20010904//EN"
 "http://www.w3.org/TR/2001/REC-SVG-20010904/DTD/svg10.dtd">
<svg version="1.0" xmlns="http://www.w3.org/2000/svg"
 width="115.000000pt" height="115.000000pt" viewBox="0 0 115.000000 115.000000"
 preserveAspectRatio="xMidYMid meet">
<metadata>
Created by potrace 1.14, written by Peter Selinger 2001-2017
</metadata>
<g transform="translate(0.000000,115.000000) scale(0.100000,-0.100000)"
fill="#000000" stroke="none">
<path d="M504 975 c-3 -14 -10 -25 -15 -25 -5 0 -9 -4 -9 -8 0 -4 -103 -180
-230 -390 -126 -211 -230 -387 -230 -393 0 -5 218 -9 566 -9 449 0 564 3 558
13 -4 6 -18 29 -31 50 -13 21 -32 53 -42 70 -10 18 -92 154 -181 302 -90 149
-171 284 -180 300 -45 78 -63 105 -70 105 -5 0 -19 -18 -31 -40 -13 -22 -26
-40 -29 -40 -3 0 -16 18 -29 40 -28 51 -39 57 -47 25z"/>
</g>
</svg>
